<?xml version="1.0" encoding="UTF-8" standalone="no"?>
<!-- Created with Inkscape (http://www.inkscape.org/) -->

<svg
   width="793.70081"
   height="1122.5197"
   viewBox="0 0 210 296.99999"
   version="1.1"
   id="svg1"
   xml:space="preserve"
   inkscape:version="1.3.2 (091e20e, 2023-11-25, custom)"
   sodipodi:docname="logo.svg"
   inkscape:export-filename="logo-light.png"
   inkscape:export-xdpi="157.35001"
   inkscape:export-ydpi="157.35001"
   xmlns:inkscape="http://www.inkscape.org/namespaces/inkscape"
   xmlns:sodipodi="http://sodipodi.sourceforge.net/DTD/sodipodi-0.dtd"
   xmlns="http://www.w3.org/2000/svg"
   xmlns:svg="http://www.w3.org/2000/svg"><sodipodi:namedview
     id="namedview1"
     pagecolor="#000000"
     bordercolor="#000000"
     borderopacity="0.25"
     inkscape:showpageshadow="true"
     inkscape:pageopacity="0.0"
     inkscape:pagecheckerboard="false"
     inkscape:deskcolor="#d1d1d1"
     inkscape:document-units="px"
     inkscape:export-bgcolor="#ffffff00"
     showborder="true"
     borderlayer="true"
     shape-rendering="auto"
     inkscape:zoom="5.7941078"
     inkscape:cx="379.52349"
     inkscape:cy="552.19891"
     inkscape:window-width="1920"
     inkscape:window-height="1009"
     inkscape:window-x="-8"
     inkscape:window-y="-8"
     inkscape:window-maximized="1"
     inkscape:current-layer="layer1"
     showgrid="false" /><defs
     id="defs1"><style
       id="style1">.cls-1{fill:#02f1ff;}</style><style
       id="style1-5">.cls-1{fill:#7e21ff;}</style><style
       id="style1-1">.cls-1{fill:#90129a;}</style><style
       id="style1-7">.cls-1{fill:#0242fe;}</style><style
       id="style1-0">.cls-1{fill:#02f1ff;}</style><style
       id="style1-6">.cls-1{fill:#1f2189;}.cls-2,.cls-4{fill:#171866;}.cls-2{opacity:0.8;}.cls-3{fill:#3638c7;}.cls-5{fill:none;stroke:#3638c7;stroke-linecap:round;stroke-miterlimit:10;stroke-width:25.38px;}</style><style
       id="style1-77">.cls-1{isolation:isolate;}.cls-10,.cls-14,.cls-2,.cls-6,.cls-7{fill:none;}.cls-2,.cls-8{stroke:#4e30c2;}.cls-10,.cls-14,.cls-2,.cls-6,.cls-7,.cls-8,.cls-9{stroke-linecap:round;}.cls-10,.cls-2,.cls-6,.cls-7,.cls-8,.cls-9{stroke-linejoin:round;}.cls-2,.cls-6,.cls-7,.cls-8,.cls-9{stroke-width:32.23px;}.cls-3{fill:#d4cafb;}.cls-4{fill:#b19ff9;}.cls-5,.cls-9{fill:#a995f9;}.cls-6,.cls-9{stroke:#7053e3;}.cls-7{stroke:#5b3ade;}.cls-8{fill:#9179f5;}.cls-10,.cls-14{stroke:#8f73ff;}.cls-10{stroke-width:32.23px;}.cls-11{fill:#7053e3;}.cls-12{fill:#130d34;opacity:0.5;mix-blend-mode:soft-light;}.cls-13{fill:#fff;opacity:0.2;mix-blend-mode:overlay;}.cls-14{stroke-miterlimit:10;stroke-width:32.23px;}.cls-15{fill:url(#Unbenannter_Verlauf_17);}</style><linearGradient
       id="Unbenannter_Verlauf_17"
       x1="454.45"
       y1="179.01"
       x2="350.92"
       y2="266.19"
       gradientUnits="userSpaceOnUse"><stop
         offset="0"
         stop-color="#5200cc"
         id="stop1" /><stop
         offset="1"
         stop-color="#300096"
         id="stop2" /></linearGradient><style
       id="style1-4">.cls-1{isolation:isolate;}.cls-2{opacity:0.5;mix-blend-mode:lighten;}.cls-3{fill:#7d36bf;}.cls-4{fill:#5730c2;}.cls-5{fill:#5830a1;}.cls-6{fill:#f7c368;opacity:0.2;mix-blend-mode:soft-light;}.cls-7{fill:#0e00cc;opacity:0.3;mix-blend-mode:multiply;}.cls-8{fill:#faffb0;opacity:0.1;mix-blend-mode:overlay;}</style><style
       id="style1-3">.cls-1{isolation:isolate;}.cls-2{opacity:0.5;mix-blend-mode:lighten;}.cls-3{fill:#4035a6;}.cls-4{fill:#4c43cc;}.cls-5{fill:#f79d79;opacity:0.2;mix-blend-mode:soft-light;}.cls-6{fill:#7eccaf;opacity:0.3;mix-blend-mode:multiply;}.cls-7{fill:#ffefb0;opacity:0.1;mix-blend-mode:overlay;}</style><style
       id="style1-58">.cls-1{isolation:isolate;}.cls-2{fill:#001f69;}.cls-3{fill:#1d8eda;}.cls-4{fill:#47cb5d;}.cls-5{fill:#fff;}.cls-6{fill:#0e00cc;opacity:0.4;mix-blend-mode:multiply;}.cls-7,.cls-8{fill:#00b8cc;mix-blend-mode:overlay;}.cls-7{opacity:0.2;}.cls-8{opacity:0.6;}</style><style
       id="style1-45">.cls-1{fill:#1f2189;}.cls-2,.cls-4{fill:#171866;}.cls-2{opacity:0.8;}.cls-3{fill:#3638c7;}.cls-5{fill:none;stroke:#3638c7;stroke-linecap:round;stroke-miterlimit:10;stroke-width:25.38px;}</style></defs><g
     inkscape:label="Camada 1"
     inkscape:groupmode="layer"
     id="layer1"><g
       id="Astroid"
       transform="matrix(0.00399232,-0.00106974,0.00106974,0.00399232,108.87635,144.08943)"><path
         class="cls-1"
         d="m 829.53,512.13 c -26.21,128.5 -151.67,211.45 -280.17,185.24 -7.82,-1.59 -15.45,-3.56 -22.9,-5.85 A 330.76,330.76 0 0 1 418,692.41 286.86,286.86 0 0 1 230.71,717.49 c -156,-31.82 -256.66,-184 -224.84,-340 a 286.81,286.81 0 0 1 93.52,-160 236.59,236.59 0 0 1 3.91,-27.33 C 129.51,61.58 255,-21.37 383.46,4.84 A 237.14,237.14 0 0 1 456.76,33 332.35,332.35 0 0 1 708,134.28 c 2.91,3 5.73,6.05 8.5,9.17 a 332.16,332.16 0 0 1 83.76,198.74 c 2.05,3.38 4,6.85 5.88,10.34 a 236.58,236.58 0 0 1 23.39,159.6 z"
         id="path1-5" /><path
         class="cls-2"
         d="m 748.42,647.46 a 236.94,236.94 0 0 1 -199.06,49.91 c -7.82,-1.59 -15.45,-3.56 -22.9,-5.85 A 330.76,330.76 0 0 1 418,692.41 286.86,286.86 0 0 1 230.71,717.49 c -156,-31.82 -256.66,-184 -224.84,-340 a 286.81,286.81 0 0 1 93.52,-160 237,237 0 0 1 127.79,-191.02 236.21,236.21 0 0 0 -81.11,135.33 238.94,238.94 0 0 0 -3.91,27.32 286.8,286.8 0 0 0 -93.51,160 c -31.82,156 68.83,308.23 224.83,340.05 a 286.89,286.89 0 0 0 187.3,-25.08 330.49,330.49 0 0 0 108.46,-0.9 c 7.45,2.3 15.08,4.27 22.89,5.86 a 236.24,236.24 0 0 0 156.29,-21.59 z"
         id="path2" /><path
         class="cls-3"
         d="m 686.23,569.1 a 58.53,58.53 0 0 1 -29.77,40 l -14.88,6.45 A 58.73,58.73 0 0 1 590.52,509.88 l 14.79,-6.42 a 58.76,58.76 0 0 1 80.92,65.61 z"
         id="path3" /><rect
         class="cls-4"
         x="66.379997"
         y="386.87"
         width="111.54"
         height="111.41"
         rx="55.709999"
         transform="rotate(-23.42,122.11039,442.50066)"
         id="rect3" /><path
         class="cls-5"
         d="m 116.62,387.11 a 55.73,55.73 0 0 1 56.7,33.3 v 0 a 55.72,55.72 0 0 1 -29,73.26 l -0.12,0.05"
         id="path4" /><rect
         class="cls-4"
         x="255.98"
         y="519.64001"
         width="146.5"
         height="128.42"
         rx="64.209999"
         transform="rotate(-23.42,329.15163,583.76201)"
         id="rect4" /><path
         class="cls-5"
         d="m 336.39,516 a 64.26,64.26 0 0 1 60.06,38.7 v 0 A 64.22,64.22 0 0 1 363,639.18"
         id="path5" /><rect
         class="cls-4"
         x="192.64999"
         y="158.87"
         width="146.5"
         height="128.42"
         rx="64.209999"
         transform="rotate(-23.42,265.84525,223.04025)"
         id="rect5" /><path
         class="cls-5"
         d="m 275.91,155.29 a 64.19,64.19 0 0 1 57.2,38.71 v 0 a 64.21,64.21 0 0 1 -33.4,84.44"
         id="path6" /><path
         class="cls-3"
         d="M 829.53,512.13 A 237,237 0 0 1 705.64,675.74 237.43,237.43 0 0 0 757.51,370.47 C 747.73,225.16 642.38,98.35 492.73,67.83 A 332.17,332.17 0 0 0 414,61.32 237.42,237.42 0 0 0 184.43,54.75 237.5,237.5 0 0 1 456.76,33 a 332.8,332.8 0 0 1 78.75,6.52 c 149.64,30.52 255,157.33 264.77,302.64 a 236.62,236.62 0 0 1 29.25,169.97 z"
         id="path7" /><path
         class="cls-3"
         d="m 806.16,352.53 c -0.69,0.34 -1.39,0.64 -2.08,1 l -93.16,40.35 A 119.66,119.66 0 1 1 615.8,174.28 l 92.2,-40 a 332.33,332.33 0 0 1 92.26,207.91 c 2.07,3.38 4.03,6.81 5.9,10.34 z"
         id="path8" /><path
         class="cls-1"
         d="m 718.54,301.85 a 58.58,58.58 0 0 1 -29.77,40 l -14.88,6.45 A 58.73,58.73 0 0 1 622.83,242.62 l 14.79,-6.41 a 58.76,58.76 0 0 1 80.92,65.61 z"
         id="path9" /><path
         class="cls-3"
         d="m 500.4,446.07 a 58.54,58.54 0 0 1 -29.77,40 l -12.95,5.61 A 58.75,58.75 0 0 0 398.8,391 l -1.95,0.83 a 59.84,59.84 0 0 1 7.83,-5 l 14.78,-6.42 a 58.81,58.81 0 0 1 80.94,65.61 z"
         id="path10" /><path
         class="cls-3"
         d="m 509.15,203.62 a 58.57,58.57 0 0 1 -29.78,40 l -12.95,5.61 A 58.74,58.74 0 0 0 407.54,148.55 l -1.94,0.83 a 58.17,58.17 0 0 1 7.83,-5 L 428.2,138 a 58.82,58.82 0 0 1 80.95,65.62 z"
         id="path11" /><path
         class="cls-3"
         d="m 293,421 a 30.49,30.49 0 0 1 -15.51,20.85 l -6.74,2.92 a 30.59,30.59 0 0 0 -30.67,-52.43 l -1,0.43 a 31.44,31.44 0 0 1 4.08,-2.6 l 7.69,-3.34 A 30.63,30.63 0 0 1 293,421 Z"
         id="path12" /></g><path
       class="cls-1"
       d="m 82.013087,149.42079 v 0 c 0.03283,0.057 -0.02241,0.12425 -0.08466,0.10306 v 0 a 1.5588945,1.5588945 0 0 0 -1.279919,0.12569 v 0 c -0.05692,0.0328 -0.124203,-0.0224 -0.103085,-0.0846 v 0 a 1.5588945,1.5588945 0 0 0 -0.125549,-1.27979 v 0 c -0.03283,-0.057 0.02242,-0.12425 0.08467,-0.10306 v 0 a 1.5588945,1.5588945 0 0 0 1.279961,-0.12543 v 0 c 0.05692,-0.0328 0.124204,0.0224 0.103085,0.0846 v 0 a 1.5588945,1.5588945 0 0 0 0.125513,1.27952 z"
       id="path1-1-0"
       style="isolation:isolate;fill:#fbbe00;stroke-width:0.00395348;fill-opacity:1" /><path
       class="cls-1"
       d="m 81.675311,149.19278 v 0 c 0.01842,0.032 -0.01257,0.0697 -0.04751,0.0578 v 0 a 0.87474911,0.87474911 0 0 0 -0.718206,0.0705 v 0 c -0.03194,0.0184 -0.06969,-0.0126 -0.05785,-0.0475 v 0 a 0.87474911,0.87474911 0 0 0 -0.07045,-0.71814 v 0 c -0.01842,-0.032 0.01258,-0.0697 0.04751,-0.0578 v 0 a 0.87474911,0.87474911 0 0 0 0.71823,-0.0704 v 0 c 0.03194,-0.0184 0.06969,0.0126 0.05785,0.0475 v 0 a 0.87474911,0.87474911 0 0 0 0.07043,0.71798 z"
       id="path1-1-0-1"
       style="isolation:isolate;fill:#e32e01;fill-opacity:0.53012049;stroke-width:0.00221843" /><text
       xml:space="preserve"
       style="font-style:normal;font-variant:normal;font-weight:800;font-stretch:normal;font-size:7.40833px;font-family:Nexa-Trial;-inkscape-font-specification:'Nexa-Trial Ultra-Bold';letter-spacing:0.264583px;fill:#ffffff;fill-opacity:1;stroke-width:0.264583;paint-order:markers fill stroke"
       x="93.658379"
       y="150.01871"
       id="text1"><tspan
         sodipodi:role="line"
         id="tspan1"
         style="font-style:normal;font-variant:normal;font-weight:800;font-stretch:normal;font-size:7.40833px;font-family:Nexa-Trial;-inkscape-font-specification:'Nexa-Trial Ultra-Bold';letter-spacing:0.264583px;fill:#ffffff;fill-opacity:1;stroke-width:0.264583"
         x="93.658379"
         y="150.01871">edges</tspan></text><path
       class="cls-1"
       d="m 120.84,143.70403 v 0 c 0.0904,0.034 0.0904,0.16193 0,0.19597 v 0 a 2.2901429,2.2901429 0 0 0 -1.33583,1.33612 v 0 c -0.034,0.0904 -0.16193,0.0904 -0.19596,0 v 0 a 2.2901429,2.2901429 0 0 0 -1.33584,-1.33583 v 0 c -0.0904,-0.034 -0.0904,-0.16193 0,-0.19596 v 0 a 2.2901429,2.2901429 0 0 0 1.33613,-1.33584 v 0 c 0.034,-0.0904 0.16192,-0.0904 0.19596,0 v 0 a 2.2901429,2.2901429 0 0 0 1.33554,1.33554 z"
       id="path1"
       style="stroke-width:0.00580797" /><path
       class="cls-1"
       d="m 91.207667,147.77978 v 0 c 0.04092,0.0154 0.04092,0.0733 0,0.0887 v 0 a 1.0365619,1.0365619 0 0 0 -0.604622,0.60475 v 0 c -0.01539,0.0409 -0.07329,0.0409 -0.0887,0 v 0 a 1.0365619,1.0365619 0 0 0 -0.604626,-0.60462 v 0 c -0.04092,-0.0154 -0.04092,-0.0733 0,-0.0887 v 0 a 1.0365619,1.0365619 0 0 0 0.604757,-0.60463 v 0 c 0.01539,-0.0409 0.07329,-0.0409 0.0887,0 v 0 a 1.0365619,1.0365619 0 0 0 0.604491,0.60449 z"
       id="path1-1"
       style="fill:#0b0054;stroke-width:0.0026288;fill-opacity:1" /><path
       class="cls-1"
       d="m 88.612459,151.45354 v 0 c 0.109654,0.0413 0.109654,0.19642 0,0.23769 v 0 a 2.7776704,2.7776704 0 0 0 -1.620202,1.62055 v 0 c -0.04124,0.10959 -0.196395,0.10959 -0.237689,0 v 0 a 2.7776704,2.7776704 0 0 0 -1.620214,-1.6202 v 0 c -0.109653,-0.0413 -0.109653,-0.19642 0,-0.23769 v 0 a 2.7776704,2.7776704 0 0 0 1.620565,-1.62023 v 0 c 0.04124,-0.1096 0.196394,-0.1096 0.237689,0 v 0 a 2.7776704,2.7776704 0 0 0 1.619851,1.61985 z"
       id="path1-1-1"
       style="fill:#e30050;stroke-width:0.00704438;fill-opacity:1" /><path
       class="cls-1"
       d="m 116.51616,152.98501 v 0 c 0.0574,0.0216 0.0574,0.10284 0,0.12445 v 0 a 1.4544279,1.4544279 0 0 0 -0.84835,0.84854 v 0 c -0.0216,0.0574 -0.10285,0.0574 -0.12446,0 v 0 a 1.4544279,1.4544279 0 0 0 -0.84837,-0.84835 v 0 c -0.0574,-0.0216 -0.0574,-0.10285 0,-0.12446 v 0 a 1.4544279,1.4544279 0 0 0 0.84855,-0.84837 v 0 c 0.0216,-0.0574 0.10285,-0.0574 0.12446,0 v 0 a 1.4544279,1.4544279 0 0 0 0.84817,0.84817 z"
       id="path1-1-7"
       style="fill:#fbbe00;stroke-width:0.00368854;fill-opacity:1" /><text
       xml:space="preserve"
       style="font-style:normal;font-variant:normal;font-weight:100;font-stretch:normal;font-size:3.175px;font-family:Nexa-Trial;-inkscape-font-specification:'Nexa-Trial Thin';fill:#ffffff;fill-opacity:1;stroke-width:0.264583;paint-order:markers fill stroke"
       x="80.023865"
       y="157.03549"
       id="text2"><tspan
         sodipodi:role="line"
         id="tspan2"
         style="font-style:normal;font-variant:normal;font-weight:100;font-stretch:normal;font-size:3.175px;font-family:Nexa-Trial;-inkscape-font-specification:'Nexa-Trial Thin';fill:#ffffff;fill-opacity:1;stroke-width:0.264583"
         x="80.023865"
         y="157.03549">we are <tspan
   style="font-style:normal;font-variant:normal;font-weight:normal;font-stretch:normal;font-size:3.175px;font-family:Nexa-Trial;-inkscape-font-specification:Nexa-Trial;fill:#ffffff;fill-opacity:1"
   id="tspan3">all</tspan> naturally expansionists</tspan></text><g
       id="Space_Ship"
       data-name="Space Ship"
       style="isolation:isolate"
       transform="matrix(0.00448112,0.00355709,-0.00355709,0.00448112,82.52653,143.79362)"><g
         id="Bottom_Part"
         data-name="Bottom Part"><g
           id="Bottom_Strings_back"
           data-name="Bottom Strings back"><path
             class="cls-2"
             d="m 186.36,787.62 c 0,-16.17 82.17,-29.27 183.54,-29.27 101.37,0 183.53,13.1 183.53,29.27"
             id="path2-3" /><path
             class="cls-2"
             d="m 186.36,715 c 0,-16.17 82.17,-29.28 183.54,-29.28 101.37,0 183.53,13.07 183.53,29.28"
             id="path3-6" /></g><g
           id="Bottom"><g
             id="Bottom-2"
             data-name="Bottom"><path
               class="cls-3"
               d="m 538.86,788.18 c 0,11.27 -36.79,21.06 -90.72,26 -23.39,2.12 -50,3.32 -78.25,3.32 -93.31,0 -169,-13.1 -169,-29.27 a 5.58,5.58 0 0 1 0.62,-2.52 c 7.39,-15 79.94,-26.76 168.34,-26.76 28.25,0 54.86,1.2 78.25,3.32 53.16,4.83 89.68,14.41 90.69,25.48 a 3.87,3.87 0 0 1 0.07,0.43 z"
               id="path4-2" /><rect
               class="cls-3"
               x="201.55"
               y="618.14001"
               width="337.28"
               height="170.24001"
               id="rect4-0" /><path
               class="cls-4"
               d="m 365.33,588.39 112.5,229.05 c -91.2,-0.41 -276.9,-13.36 -276.9,-29.26 a 5.58,5.58 0 0 1 0.62,-2.52 V 620.17 a 5.58,5.58 0 0 1 -0.62,-2.52 c 0,-15.89 73.19,-28.85 164.4,-29.26 z"
               id="path5-1" /><path
               class="cls-5"
               d="m 538.86,617.65 a 4,4 0 0 1 0,0.49 c -1,11.07 -37.54,20.66 -90.69,25.47 -23.39,2.12 -50,3.32 -78.25,3.32 -88.4,0 -160.95,-11.76 -168.34,-26.76 a 5.58,5.58 0 0 1 -0.62,-2.52 c 0,-16.16 75.65,-29.27 169,-29.27 56.78,0 107,4.86 137.64,12.3 19.65,4.78 31.26,10.64 31.26,16.97 z"
               id="path6-3" /></g><path
             id="Bottom_Frame"
             data-name="Bottom Frame"
             class="cls-6"
             d="m 538.84,618.14 v 0 a 3.88,3.88 0 0 0 0,-0.48 c 0,-16.17 -75.65,-29.28 -169,-29.28 -93.35,0 -169,13.11 -169,29.28 a 5.63,5.63 0 0 0 0.61,2.48 v 165.55 a 5.64,5.64 0 0 0 -0.61,2.49 c 0,16.17 75.64,29.27 169,29.27 93.36,0 169,-13.1 169,-29.27 0,-0.08 0,-0.16 0,-0.24 z" /><line
             id="Bottom_Frame-2"
             data-name="Bottom Frame"
             class="cls-2"
             x1="201.55"
             y1="620.14001"
             x2="201.55"
             y2="785.69" /></g><g
           id="Bottom_Strings_front"
           data-name="Bottom Strings front"><path
             class="cls-6"
             d="m 553.43,715 c 0,16.16 -82.17,29.27 -183.53,29.27 -101.36,0 -183.54,-13.15 -183.54,-29.27"
             id="path7-1" /><path
             class="cls-7"
             d="M 324.8,743.34 C 245.24,740.13 186.36,728.64 186.36,714.96"
             id="path8-7" /><path
             class="cls-6"
             d="m 553.43,787.62 c 0,16.17 -82.17,29.28 -183.53,29.28 -101.36,0 -183.54,-13.11 -183.54,-29.28"
             id="path9-6" /><path
             class="cls-7"
             d="m 278.13,813 c -54.86,-5.06 -91.77,-14.52 -91.77,-25.36"
             id="path10-4" /></g></g><g
         id="Wings_Side"
         data-name="Wings Side"><polygon
           id="Wing_left"
           data-name="Wing left"
           class="cls-8"
           points="176.87,628.08 176.87,400.34 121.46,400.34 16.11,514.21 16.72,628.08 " /><polygon
           id="Wing_right"
           data-name="Wing right"
           class="cls-9"
           points="562.92,628.08 562.92,400.34 618.34,400.34 723.68,514.21 723.07,628.08 " /><polyline
           id="Wing_right-2"
           data-name="Wing right"
           class="cls-10"
           points="706.8 495.96 723.68 514.21 723.34 577.33" /></g><g
         id="Middle_Part"
         data-name="Middle Part"><g
           id="Middle"><g
             id="Body"><ellipse
               class="cls-5"
               cx="369.89999"
               cy="644.76001"
               rx="194.94"
               ry="33.779999"
               id="ellipse10" /><polygon
               class="cls-5"
               points="680.75,442.1 564.84,644.76 174.96,644.76 59.04,442.1 "
               id="polygon10" /><ellipse
               class="cls-11"
               cx="369.89999"
               cy="442.10001"
               rx="310.85001"
               ry="53.860001"
               id="ellipse11" /></g><path
             class="cls-12"
             d="M 361.63,678.5 C 257.8,677.75 175,663 175,644.76 l -109.81,-192 c -4,-3.45 -6.1,-7 -6.1,-10.66 0,-18.92 56.34,-35.56 141.55,-45.17 z"
             id="path11-9" /><path
             id="Light"
             class="cls-13"
             d="m 564.83,644.76 109.83,-192 c 4,-3.45 6.09,-7 6.09,-10.66 0,-14.38 -73.62,-11.33 -126.63,-21 l -18,241.34 c 0,0 21.4,-6.24 28.71,-17.68 z" /></g><path
           id="Miiddle_Frame"
           data-name="Miiddle Frame"
           class="cls-6"
           d="m 175,644.76 c 0,18.66 87.28,33.78 195,33.78 107.72,0 194.94,-15.12 194.94,-33.78 l 109.81,-192 c 4,-3.45 6.1,-7 6.1,-10.66 0,-29.74 -139.18,-53.86 -310.85,-53.86 -171.67,0 -311,24.12 -311,53.86 0,3.65 2.11,7.21 6.1,10.66 z" /><path
           id="Miiddle_Frame-2"
           data-name="Miiddle Frame"
           class="cls-2"
           d="m 65.14,452.76 109.86,192 c 0,18.66 87.28,33.78 195,33.78" /><line
           id="Miiddle_Frame-3"
           data-name="Miiddle Frame"
           class="cls-14"
           x1="603.40997"
           y1="577.33002"
           x2="674.65002"
           y2="452.76001" /></g><g
         id="Top_Part"
         data-name="Top Part"><g
           id="Top"><g
             id="Top-2"
             data-name="Top"><ellipse
               class="cls-3"
               cx="369.89999"
               cy="442.20999"
               rx="310.85001"
               ry="53.860001"
               id="ellipse12" /><path
               class="cls-3"
               d="M 680.75,442.48 H 59 c 0,-153 77.54,-294.11 203,-369.66 l 82.35,-49.57 a 49,49 0 0 1 50.95,0 l 82.35,49.57 c 125.57,75.55 203.1,216.71 203.1,369.66 z"
               id="path12-5" /></g><path
             id="Shadow"
             class="cls-4"
             d="m 278.86,496.08 c -58.73,-0.57 -200.79,-4.29 -219.8,-53.6 v 0 a 2.62,2.62 0 0 1 0,-0.29 v 0 C 59.42,328.93 100.71,222.56 176.88,141.55 175.89,144 41.38,441.14 278.86,496.08 Z" /><path
             id="Light-2"
             data-name="Light"
             class="cls-13"
             d="m 680.75,442.19 v 0.29 0 c -0.49,18 -52,33.92 -130.63,43.63 l -1.2,-0.25 c 0,0 4.64,-215.64 -158.92,-403.69 -24.62,-28.3 -19.76,-66.06 -19.76,-66.06 a 49.35,49.35 0 0 1 25.18,7.14 l 82.35,49.57 c 125.37,75.5 202.87,216.53 202.98,369.37 z" /><path
             id="Top_Frame"
             data-name="Top Frame"
             class="cls-6"
             d="m 680.75,442.21 v 0 C 680.64,289.37 603.13,148.35 477.75,72.85 l -82.38,-49.6 a 49.06,49.06 0 0 0 -50.95,0 l -82.35,49.57 c -125.41,75.5 -202.92,216.52 -203,369.36 v 0.06 c 0,0.08 0,0.16 0,0.24 v 0 c 0.84,29.62 139.68,53.59 310.84,53.59 171.16,0 310,-24 310.83,-53.59 v 0 -0.27 z" /></g><path
           id="Top_Frame-2"
           data-name="Top Frame"
           class="cls-7"
           d="m 154.07,167.73 c -60.35,75.54 -95,172.36 -95,274.45 v 0.06 c 0,0.08 0,0.16 0,0.24 v 0 c 0.52,18.12 52.62,34.11 132.16,43.81" /><g
           id="Reflection"><path
             class="cls-14"
             d="m 654.66,292.06 a 446,446 0 0 1 23.92,107.67"
             id="path13" /><path
             class="cls-14"
             d="m 477.58,72.82 c 59.28,35.68 107.86,86 142.62,145.31"
             id="path14" /></g></g><path
         id="Wing_middle"
         data-name="Wing middle"
         class="cls-9"
         d="m 389.93,483.16 v -0.34 0 L 383.83,412 a 13.35,13.35 0 0 0 -13.3,-12.22 h -1.27 A 13.35,13.35 0 0 0 356,412 l -6.07,70.87 h -0.05 v 0.34 0.33 h 0.05 l 6.47,131.28 a 13.36,13.36 0 0 0 13.34,12.7 H 370 a 13.37,13.37 0 0 0 13.41,-12.69 c 1.72,-35.17 6.48,-131.29 6.48,-131.29 v 0 z" /><g
         id="Window"><polygon
           id="Window-2"
           data-name="Window"
           class="cls-15"
           points="463.97,310.22 275.82,310.22 302.49,167.73 437.3,167.73 "
           style="fill:url(#Unbenannter_Verlauf_17)" /><polygon
           id="Window_Frame"
           data-name="Window Frame"
           class="cls-6"
           points="463.97,310.22 275.82,310.22 302.49,167.73 437.3,167.73 " /><polyline
           id="Window_Frame-2"
           data-name="Window Frame"
           class="cls-10"
           points="383.09 167.73 437.3 167.73 444.45 205.95" /><polyline
           id="Window_Frame-3"
           data-name="Window Frame"
           class="cls-2"
           points="349.84 310.22 275.82 310.22 290.97 229.3" /></g></g><g
       id="Earth"
       style="isolation:isolate"
       transform="matrix(0.00720791,0,0,0.00720791,122.63472,146.35616)"><path
         class="cls-2"
         d="M 833.11,417.64 C 836.32,690.81 563.6,896.4 301.94,819 -52,718.5 -110.32,236.62 210,54.79 483,-103.76 836.36,101.5 833.11,417.64 Z"
         id="path1-4" /><g
         id="Earth-2"
         data-name="Earth"><path
           class="cls-3"
           d="M 784.78,417.64 C 788.33,658.37 545.54,841.4 315.15,772.51 55,701.38 -40.93,368.73 142.35,170.31 367.56,-78.66 784.62,81.63 784.78,417.64 Z"
           id="path2-7" /><path
           class="cls-4"
           d="M 266.45,581.44 A 70.54,70.54 0 0 1 195.94,652 H 131.11 A 367.39,367.39 0 0 1 59,510.93 h 136.9 a 70.51,70.51 0 0 1 70.55,70.51 z"
           id="path3-7" /><path
           class="cls-4"
           d="M 350.87,155.12 A 73.78,73.78 0 0 1 277.1,228.89 H 99 A 370.72,370.72 0 0 1 233.86,96.83 c 9.87,-5.6 20,-10.79 30.42,-15.47 h 12.82 a 73.76,73.76 0 0 1 73.77,73.76 z"
           id="path4-9" /><rect
           class="cls-4"
           x="97.050003"
           y="300.48999"
           width="266.60001"
           height="101.97"
           rx="50.98"
           id="rect4-04" /><path
           class="cls-4"
           d="M 651,133.43 H 542.89 a 51,51 0 0 1 -51,-51 A 50.41,50.41 0 0 1 498.16,58 367.43,367.43 0 0 1 651,133.43 Z"
           id="path5-2" /><path
           class="cls-4"
           d="m 735.25,602.38 q -1.92,3.32 -3.91,6.57 c -0.87,1.41 -1.73,2.82 -2.62,4.24 -1.5,2.43 -3.06,4.81 -4.62,7.2 -1.15,1.76 -2.33,3.49 -3.52,5.23 -1.19,1.74 -2.54,3.66 -3.84,5.49 a 2.85,2.85 0 0 1 -0.17,0.26 c -1.22,1.69 -2.43,3.38 -3.69,5 -2.91,4 -5.94,7.92 -9,11.78 -1.26,1.59 -2.56,3.17 -3.86,4.73 -1.45,1.76 -2.93,3.52 -4.4,5.23 a 0.62,0.62 0 0 0 -0.09,0.11 c -1.48,1.69 -2.93,3.36 -4.43,5 -1.5,1.64 -3.06,3.39 -4.6,5.06 -1.54,1.67 -3,3.21 -4.51,4.79 -3.51,3.65 -7.07,7.21 -10.72,10.7 q -1.65,1.59 -3.34,3.17 c -1.84,1.71 -3.69,3.42 -5.57,5.09 -1.3,1.18 -2.63,2.35 -3.95,3.5 -1.15,1 -2.3,2 -3.47,3 -1.17,1 -2.41,2.06 -3.63,3.06 -1.47,1.24 -3,2.45 -4.46,3.65 l -0.57,0.45 c -1.69,1.37 -3.43,2.73 -5.16,4.06 q -2.12,1.65 -4.3,3.27 l -2.32,1.72 c -0.74,0.54 -1.45,1.08 -2.19,1.6 -1,0.7 -1.91,1.39 -2.89,2.06 -2.86,2.07 -5.77,4.06 -8.7,6 a 2.6,2.6 0 0 1 -0.3,0.2 c -1.26,0.85 -2.52,1.69 -3.8,2.49 -1.58,1.05 -3.17,2 -4.75,3 -1.41,0.89 -2.8,1.76 -4.23,2.63 l -0.76,0.45 c -1.63,1 -3.28,2 -4.92,2.93 -0.35,0.22 -0.7,0.41 -1,0.61 -1.85,1.08 -3.72,2.15 -5.6,3.19 -1.88,1.04 -4,2.23 -6.06,3.3 -2.06,1.07 -4.05,2.14 -6.11,3.19 -2.06,1.05 -4.1,2.08 -6.19,3.08 h -86.81 a 73.77,73.77 0 0 1 0,-147.53 h 238.18 c 2.32,0.12 4.63,0.22 6.88,0.44 z"
           id="path6-5" /><path
           class="cls-4"
           d="m 729.22,401.74 a 56.34,56.34 0 0 1 -39.84,96.18 H 507.46 a 56.35,56.35 0 0 1 0,-112.69 h 104.23 a 21.37,21.37 0 0 0 6.18,-4.32 A 21.69,21.69 0 0 0 604.7,344 v -0.1 h -27 a 75.94,75.94 0 0 1 0,-151.87 h 130 a 368.12,368.12 0 0 1 43.43,71.59 q 5.51,11.85 10.11,24.19 0.94,2.47 1.82,4.95 c 0.61,1.65 1.2,3.3 1.76,5 0.56,1.7 1.13,3.34 1.67,5 a 360.21,360.21 0 0 1 10.89,41.16 H 676.3 v 0.1 a 21.71,21.71 0 0 0 -6.94,41.25 h 20 a 56.16,56.16 0 0 1 39.86,16.47 z"
           id="path7-9" /><rect
           class="cls-5"
           x="350.87"
           y="116.07"
           width="271.20001"
           height="93.290001"
           rx="46.650002"
           id="rect7" /><path
           class="cls-5"
           d="m 233.71,303.74 a 46.67,46.67 0 0 1 -46.65,46.65 H 53.27 a 365.44,365.44 0 0 1 30.54,-93.3 h 103.25 a 46.63,46.63 0 0 1 46.52,43.4 c 0.09,1.08 0.13,2.16 0.13,3.25 z"
           id="path8-4" /><rect
           class="cls-5"
           x="374.73001"
           y="337.37"
           width="180.07001"
           height="93.290001"
           rx="46.650002"
           id="rect8" /><path
           class="cls-5"
           d="m 620.67,724.48 a 2.6,2.6 0 0 1 -0.3,0.2 c -1.26,0.85 -2.52,1.69 -3.8,2.49 -1.58,1.05 -3.17,2 -4.75,3 -1.41,0.89 -2.8,1.76 -4.23,2.63 l -0.76,0.45 c -1.63,1 -3.28,2 -4.92,2.93 -0.35,0.22 -0.7,0.41 -1,0.61 -1.85,1.08 -3.72,2.15 -5.6,3.19 -1.88,1.04 -4,2.23 -6.06,3.3 -2.06,1.07 -4.05,2.14 -6.11,3.19 -2.06,1.05 -4.1,2.08 -6.19,3.08 a 366,366 0 0 1 -115.07,34 46.45,46.45 0 0 1 -11.17,-30.25 45.76,45.76 0 0 1 2.14,-14 46.67,46.67 0 0 1 44.5,-32.67 h 86.78 a 46.46,46.46 0 0 1 36.54,17.85 z"
           id="path9-8" /><path
           class="cls-5"
           d="m 266.25,133.43 a 36.87,36.87 0 0 1 -36.88,36.88 h -87 a 370.3,370.3 0 0 1 91.51,-73.48 36.86,36.86 0 0 1 32.37,36.6 z"
           id="path10-3" /><path
           class="cls-5"
           d="m 320.49,753.38 a 36.79,36.79 0 0 1 -5.34,19.14 367,367 0 0 1 -115.4,-56 h 83.86 a 36.88,36.88 0 0 1 36.88,36.86 z"
           id="path11-7" /><path
           class="cls-5"
           d="M 783.17,382.93 H 673.05 a 57.81,57.81 0 0 1 -8.27,-0.59 59.66,59.66 0 0 1 8.27,-118.74 h 78.1 q 5.51,11.85 10.11,24.19 0.94,2.47 1.82,4.95 c 0.61,1.65 1.2,3.3 1.76,5 0.56,1.7 1.13,3.34 1.67,5 a 366.64,366.64 0 0 1 16.66,80.21 z"
           id="path12-7" /><path
           class="cls-5"
           d="m 781.7,465.37 a 366,366 0 0 1 -18.94,78.11 H 628.57 a 39.05,39.05 0 0 1 -39.05,-39.06 37.59,37.59 0 0 1 0.56,-6.5 39,39 0 0 1 38.49,-32.55 z"
           id="path13-1" /><path
           class="cls-5"
           d="m 399,565.47 h -86.86 c 0.47,0 1,0 1.44,-0.05 -13.37,-0.68 -24,-10.24 -24,-21.94 a 20.52,20.52 0 0 1 7.47,-15.55 27.23,27.23 0 0 1 16.49,-6.4 c -0.48,0 -1,0 -1.44,0 h 14.68 a 37.82,37.82 0 1 0 0,-75.64 h -144.2 a 37.82,37.82 0 0 0 0,75.64 h 32.81 c 14.09,0 25.5,9.84 25.5,22 a 20.5,20.5 0 0 1 -7.47,15.47 27.52,27.52 0 0 1 -18,6.45 h -4.67 a 37.82,37.82 0 0 0 0,75.64 H 399 a 37.82,37.82 0 1 0 0,-75.64 z"
           id="path14-0" /><path
           class="cls-6"
           d="m 784.78,417.64 a 366.86,366.86 0 0 1 -49.53,184.74 q -1.92,3.32 -3.91,6.57 c -0.87,1.41 -1.73,2.82 -2.62,4.24 -1.5,2.43 -3.06,4.81 -4.62,7.2 -1.15,1.76 -2.33,3.49 -3.52,5.23 -1.19,1.74 -2.54,3.66 -3.84,5.49 a 2.85,2.85 0 0 1 -0.17,0.26 c -1.22,1.69 -2.43,3.38 -3.69,5 -2.91,4 -5.94,7.92 -9,11.78 -1.26,1.59 -2.56,3.17 -3.86,4.73 -1.45,1.76 -2.93,3.52 -4.4,5.23 a 0.62,0.62 0 0 0 -0.09,0.11 c -1.48,1.69 -2.93,3.36 -4.43,5 -1.5,1.64 -3.06,3.39 -4.6,5.06 -1.54,1.67 -3,3.21 -4.51,4.79 -3.51,3.65 -7.07,7.21 -10.72,10.7 q -1.65,1.59 -3.34,3.17 c -1.84,1.71 -3.69,3.42 -5.57,5.09 -1.3,1.18 -2.63,2.35 -3.95,3.5 -1.15,1 -2.3,2 -3.47,3 -1.17,1 -2.41,2.06 -3.63,3.06 -1.47,1.24 -3,2.45 -4.46,3.65 l -0.57,0.45 c -1.69,1.37 -3.43,2.73 -5.16,4.06 q -2.12,1.65 -4.3,3.27 l -2.32,1.72 c -0.74,0.54 -1.45,1.08 -2.19,1.6 -1,0.7 -1.91,1.39 -2.89,2.06 -2.86,2.07 -5.77,4.06 -8.7,6 a 2.6,2.6 0 0 1 -0.3,0.2 c -1.26,0.85 -2.52,1.69 -3.8,2.49 -1.58,1.05 -3.17,2 -4.75,3 -1.41,0.89 -2.8,1.76 -4.23,2.63 l -0.76,0.45 c -1.63,1 -3.28,2 -4.92,2.93 -0.35,0.22 -0.7,0.41 -1,0.61 -1.85,1.08 -3.72,2.15 -5.6,3.19 -1.88,1.04 -4,2.23 -6.06,3.3 -2.06,1.07 -4.05,2.14 -6.11,3.19 -2.06,1.05 -4.1,2.08 -6.19,3.08 a 366,366 0 0 1 -115.07,34 A 368.64,368.64 0 0 1 131.11,652 q -8.21,-10 -15.73,-20.53 a 369.19,369.19 0 0 0 374.75,31.33 c 2.08,-1 4.14,-2 6.18,-3.08 2.04,-1.08 4.1,-2.1 6.12,-3.19 2.02,-1.09 4.06,-2.17 6.06,-3.29 2,-1.12 3.75,-2.11 5.59,-3.19 0.35,-0.2 0.7,-0.39 1,-0.61 1.65,-1 3.3,-1.93 4.93,-2.93 0.26,-0.15 0.52,-0.3 0.76,-0.46 1.43,-0.86 2.82,-1.73 4.23,-2.62 1.58,-1 3.17,-2 4.75,-3 1.28,-0.8 2.54,-1.65 3.8,-2.49 l 0.3,-0.2 c 2.93,-2 5.84,-4 8.7,-6 1,-0.67 1.93,-1.37 2.89,-2.06 0.73,-0.52 1.45,-1.06 2.19,-1.61 0.74,-0.55 1.54,-1.14 2.32,-1.71 q 2.18,-1.62 4.29,-3.28 c 1.74,-1.32 3.48,-2.69 5.17,-4 0.19,-0.15 0.39,-0.31 0.56,-0.46 1.5,-1.19 3,-2.41 4.47,-3.64 1.21,-1 2.43,-2 3.62,-3.06 1.19,-1.06 2.33,-2 3.48,-3 1.32,-1.15 2.64,-2.32 3.94,-3.49 1.89,-1.67 3.73,-3.38 5.58,-5.1 1.13,-1 2.24,-2.1 3.34,-3.16 3.65,-3.5 7.21,-7.06 10.72,-10.7 1.52,-1.58 3,-3.19 4.51,-4.8 1.51,-1.61 3.08,-3.36 4.6,-5.05 1.52,-1.69 3,-3.34 4.43,-5 a 0.59,0.59 0 0 1 0.08,-0.11 c 1.48,-1.72 3,-3.47 4.41,-5.23 1.3,-1.56 2.6,-3.15 3.86,-4.73 3.1,-3.86 6.14,-7.79 9.05,-11.78 1.26,-1.67 2.47,-3.36 3.68,-5.06 a 1.1,1.1 0 0 0 0.18,-0.26 c 1.3,-1.82 2.58,-3.64 3.84,-5.49 1.26,-1.85 2.36,-3.47 3.51,-5.22 1.57,-2.39 3.13,-4.78 4.62,-7.21 0.89,-1.41 1.76,-2.82 2.63,-4.23 1.32,-2.17 2.63,-4.36 3.9,-6.57 a 366.18,366.18 0 0 0 46.46,-137 370.44,370.44 0 0 0 3.12,-47.87 q 0,-17.58 -1.61,-34.71 a 366.33,366.33 0 0 0 -16.66,-80.21 c -0.54,-1.67 -1.11,-3.34 -1.67,-5 -0.56,-1.66 -1.15,-3.32 -1.76,-5 -0.61,-1.68 -1.19,-3.3 -1.82,-5 q -4.62,-12.33 -10.11,-24.19 A 367,367 0 0 0 629.7,117 q 11,7.83 21.32,16.4 a 370,370 0 0 1 100.13,130.2 q 5.51,11.85 10.11,24.19 0.94,2.47 1.82,4.95 c 0.61,1.65 1.2,3.3 1.76,5 0.56,1.7 1.13,3.34 1.67,5 a 366.64,366.64 0 0 1 16.66,80.21 q 1.61,17.13 1.61,34.69 z"
           id="path15" /><path
           class="cls-7"
           d="m 459.34,641.11 a 282.75,282.75 0 0 1 -39.92,145.34 c -1.15,0 -2.32,0 -3.47,0 A 368.47,368.47 0 0 1 47.13,417.64 q 0,-15.69 1.3,-31 a 282.71,282.71 0 0 1 126.7,-29.75 c 156.97,0 284.21,127.25 284.21,284.22 z"
           id="path16" /><circle
           class="cls-8"
           cx="289.57001"
           cy="265.23001"
           r="119.87"
           id="circle16" /></g></g></g></svg>
